<svg width="256" height="256" xmlns="http://www.w3.org/2000/svg">
 <g>
  <title>Android</title>
  <path stroke="null" id="svg_1" d="m52.32918,161.14017c0,10.26248 -7.05043,18.66436 -15.66397,18.66436s-15.6722,-8.39354 -15.6722,-18.66436l0,-61.0826c0,-10.26248 7.05043,-18.66436 15.6722,-18.66436s15.66397,8.40188 15.66397,18.66436l0,61.0826zm182.67782,0c0,10.26248 -7.05043,18.66436 -15.6722,18.66436s-15.6722,-8.39354 -15.6722,-18.66436l0,-61.0826c0,-10.26248 7.05043,-18.66436 15.6722,-18.66436s15.6722,8.40188 15.6722,18.66436l0,61.0826zm-72.75028,-138.7854l10.05324,-18.29725c0.82269,-1.49348 0.57588,-3.23727 -0.53475,-3.86303s-2.70664,0.07509 -3.5211,1.56857l-10.2836,18.72276c-9.17297,-3.66279 -19.44834,-5.70694 -30.30782,-5.70694c-10.94175,0 -21.29116,2.08587 -30.52172,5.79872l-10.33296,-18.8062c-0.82269,-1.49348 -2.41048,-2.20268 -3.5211,-1.56857s-1.35743,2.36955 -0.53475,3.86303l10.10261,18.38902c-21.01967,10.01217 -35.17813,28.81003 -35.17813,50.35288c0,2.18599 0.15631,4.34695 0.43602,6.47454l139.10827,0c0.28794,-2.12759 0.43602,-4.2802 0.43602,-6.47454c0,-21.60961 -14.24895,-40.45752 -35.3838,-50.44466l-0.01645,-0.00834l0.00002,0.00001zm-66.36622,31.93883c-3.38125,0 -6.1208,-2.77838 -6.1208,-6.20755s2.73955,-6.20755 6.1208,-6.20755s6.1208,2.77838 6.1208,6.20755c0,3.42917 -2.73955,6.20755 -6.1208,6.20755zm63.87348,0c-3.38125,0 -6.1208,-2.77838 -6.1208,-6.20755s2.73955,-6.20755 6.1208,-6.20755s6.1208,2.77838 6.1208,6.20755c0,3.42917 -2.73955,6.20755 -6.1208,6.20755zm-102.10378,31.15454l0,104.0515l0.05759,0c0.71574,8.78568 8.68758,15.76917 18.34594,15.76917l103.17327,0c9.65013,0 17.62197,-6.98349 18.34594,-15.76917l0.05759,0l0,-104.0515l-139.9721,0l-0.00823,0zm59.97394,119.30338l0,32.18913c0,10.26248 -7.05043,18.66436 -15.6722,18.66436s-15.66397,-8.40188 -15.66397,-18.66436l0,-32.1641l31.33618,-0.02503l-0.00001,0zm52.22422,-0.01669l0,32.20582c0,10.26248 -7.05043,18.66436 -15.6722,18.66436s-15.6722,-8.40188 -15.6722,-18.66436l0,-32.20582l31.3444,0z"/>
 </g>

</svg>