<svg width="256" height="256" xmlns="http://www.w3.org/2000/svg" enable-background="new 0 0 841.89 595.28" version="1.1">
 <g>
  <title>Logo</title>
  <g id="svg_01" stroke="null">
   <path id="svg_02" d="m53.65808,45.59243c-0.33705,10.86785 1.53777,24.37548 5.0202,39.45729c4.27555,13.163 7.12591,23.93273 10.45157,35.89909s12.82663,37.4942 10.45157,68.60676c0,9.57309 0.47529,36.29817 -3.32566,44.67462c-1.18788,3.39067 -5.70073,12.76452 11.63875,13.36284c37.83286,6.00771 85.74817,-0.9974 85.74817,-0.9974s18.21596,0.72277 9.97627,-17.15199c-9.93138,-95.8057 14.41571,-114.35356 17.31809,-155.5376c1.66176,-12.36544 1.43231,-24.73029 1.43231,-24.73029c-66.02437,2.05163 -66.73126,7.27914 -148.71126,-3.58333l-0.00001,0.00001z" fill="#542010" stroke="null"/>
   <path id="svg_03" d="m59.04028,17.26506c0,0 -3.40476,10.68536 -3.94062,27.98514c48.4526,6.71971 66.06357,7.96959 145.83809,3.06339c0,0 -0.21592,-29.96377 -1.00404,-31.04853c-64.54789,4.48738 -75.0586,4.93613 -140.89342,0l-0.00001,0z" stroke-miterlimit="10" stroke-width="4" fill="none" stroke="#542010"/>
   <path id="svg_04" d="m161.25712,179.12987c-1.84347,1.85239 -5.12566,2.0977 -7.33042,0.54986l-18.63354,-13.07923c-2.20546,-1.54785 -2.49977,-4.30311 -0.65558,-6.1555l14.64659,-14.71085c1.84419,-1.85239 5.12638,-2.0977 7.33184,-0.54986l18.63354,13.07983c2.20476,1.54666 2.49835,4.30311 0.65487,6.1549l-14.64731,14.71085l0.00001,0z" fill="#FFFFFF" stroke="null"/>
   <path id="svg_05" d="m131.05683,187.65231c-0.56366,2.36694 -3.30642,3.90103 -6.124,3.42777l-23.8162,-3.99975c-2.81829,-0.47327 -4.6468,-2.775 -4.08243,-5.14254l4.47863,-18.80155c0.56366,-2.36694 3.30642,-3.90163 6.12472,-3.42777l23.8162,4.00035c2.81758,0.47267 4.64609,2.7756 4.08243,5.14194l-4.47935,18.80155z" fill="#FFFFFF" stroke="null"/>
   <path id="svg_06" d="m165.26117,225.5462c-0.56366,2.36694 -3.30642,3.90103 -6.124,3.42777l-23.8162,-3.99975c-2.81829,-0.47327 -4.6468,-2.775 -4.08243,-5.14254l4.47863,-18.80155c0.56366,-2.36694 3.30642,-3.90163 6.12472,-3.42777l23.8162,4.00035c2.81758,0.47267 4.64609,2.7756 4.08243,5.14194l-4.47935,18.80155z" fill="#FFFFFF" stroke="null"/>
   <path id="svg_07" d="m137.03831,207.60742c1.48718,2.06599 0.69762,4.75184 -1.76223,5.99993l-20.78556,10.54954c-2.45986,1.24809 -5.6594,0.58695 -7.14657,-1.47964l-11.81333,-16.40947c-1.48718,-2.0654 -0.69762,-4.75184 1.76223,-6.00054l20.78556,-10.54894c2.45844,-1.24809 5.65868,-0.58575 7.14515,1.47964l11.81476,16.40947l-0.00001,0l0,0.00001z" fill="#FFFFFF" stroke="null"/>
   <path id="svg_08" d="m170.25287,185.66889c1.48718,2.06599 0.69762,4.75184 -1.76223,5.99993l-20.78556,10.54954c-2.45986,1.24809 -5.6594,0.58695 -7.14657,-1.47964l-11.81261,-16.40947c-1.48788,-2.0654 -0.69762,-4.75184 1.76223,-6.00054l20.78556,-10.54894c2.45844,-1.24809 5.65868,-0.58575 7.14515,1.47964l11.81404,16.40947l-0.00001,0l0,0.00001z" fill="#FFFFFF" stroke="null"/>
   <circle id="svg_09" r="3.87691" cy="69.54789" cx="87.14343" fill="#FFFFFF" stroke="null"/>
   <circle id="svg_10" r="3.14358" cy="116.49673" cx="136.34495" fill="#FFFFFF" stroke="null"/>
   <circle id="svg_11" r="3.14357" cy="126.8943" cx="103.12398" fill="#FFFFFF" stroke="null"/>
   <circle id="svg_12" r="3.14359" cy="149.36594" cx="168.27045" fill="#FFFFFF" stroke="null"/>
   <circle id="svg_13" r="2.05821" cy="98.02904" cx="112.70263" fill="#FFFFFF" stroke="null"/>
   <circle id="svg_14" r="2.0582" cy="191.16505" cx="94.77954" fill="#FFFFFF" stroke="null"/>
   <circle id="svg_15" r="1.31184" cy="225.58988" cx="114.81474" fill="#FFFFFF" stroke="null"/>
   <circle id="svg_16" r="1.31221" cy="105.92624" cx="121.16322" fill="#FFFFFF" stroke="null"/>
   <circle id="svg_17" r="1.31221" cy="89.17633" cx="174.46286" fill="#FFFFFF" stroke="null"/>
   <circle id="svg_18" r="2.05821" cy="85.77249" cx="137.78937" fill="#FFFFFF" stroke="null"/>
   <circle id="svg_19" r="2.05821" cy="66.02799" cx="189.4522" fill="#FFFFFF" stroke="null"/>
   <circle id="svg_20" r="2.52022" cy="67.3042" cx="131.13664" stroke-miterlimit="10" stroke-width="3" fill="none" stroke="#FFFFFF"/>
   <circle id="svg_21" r="2.02349" cy="97.971" cx="88.83654" stroke-miterlimit="10" fill="none" stroke="#FFFFFF"/>
   <circle id="svg_22" r="2.52058" cy="113.54164" cx="160.23456" stroke-miterlimit="10" stroke-width="3" fill="none" stroke="#FFFFFF"/>
   <circle id="svg_23" r="1.2308" cy="137.71608" cx="126.1713" stroke-miterlimit="10" fill="none" stroke="#FFFFFF"/>
   <circle id="svg_24" r="1.2308" cy="194.56948" cx="169.84242" stroke-miterlimit="10" fill="none" stroke="#FFFFFF"/>
   <circle id="svg_25" r="1.23081" cy="218.34844" cx="172.26665" stroke-miterlimit="10" fill="none" stroke="#FFFFFF"/>
   <circle id="svg_26" r="1.23079" cy="226.82361" cx="126.17202" stroke-miterlimit="10" fill="none" stroke="#FFFFFF"/>
   <g id="svg_27" stroke="null">
    <g id="svg_28" stroke="null">
     <path id="svg_29" d="m128.6162,67.52379c2.29811,0 2.29811,-2.99159 0,-2.99159s-2.29811,2.99159 0,2.99159l0,0z" fill="#FFFFFF" stroke="null"/>
    </g>
   </g>
   <g id="svg_30" stroke="null">
    <g id="svg_31" stroke="null">
     <path id="svg_32" d="m157.65427,113.44471c2.29811,0 2.29811,-2.99159 0,-2.99159s-2.29811,2.99159 0,2.99159l0,0z" fill="#FFFFFF" stroke="null"/>
    </g>
   </g>
   <g id="svg_33" stroke="null">
    <g id="svg_34" stroke="null">
     <path id="svg_35" d="m87.64224,99.08507c2.29739,0 2.29739,-2.99159 0,-2.99159s-2.29739,2.99159 0,2.99159l0,0z" fill="#FFFFFF" stroke="null"/>
    </g>
   </g>
   <circle id="svg_36" r="1.56292" cy="71.73355" cx="162.39228" stroke-miterlimit="10" fill="none" stroke="#FFFFFF"/>
   <g id="svg_37" stroke="null">
    <g id="svg_38" stroke="null">
     <path id="svg_39" d="m183.59755,80.7891c2.29811,0 2.29811,-2.99159 0,-2.99159s-2.29739,2.99159 0,2.99159l0,0z" fill="#FFFFFF" stroke="null"/>
    </g>
   </g>
   <path id="svg_40" d="m71.35812,22.41957l37.95757,-1.37373c0,0 -10.48221,41.02548 -6.80738,92.24332c0.61497,43.59586 -0.24015,90.218 0.61497,128.23634c-12.20098,0 -19.10456,1.07876 -18.27296,-5.13357c6.70619,-45.04559 0,-87.20008 -8.19479,-124.73678c-15.67628,-49.58382 -4.27056,-69.61073 -5.2974,-89.23557" fill="#FFFFFF" opacity="0.2" stroke="null"/>
   <path id="svg_41" d="m178.80467,19.20959l-23.2554,1.83623c0,0 5.66795,41.40003 3.28718,91.93817c-0.39905,43.01668 0.15605,89.01957 -0.39905,126.53412c7.90405,0 12.37627,1.06321 11.83684,-5.06656c-4.34395,-44.44786 0,-86.04294 5.3088,-123.08004c10.15513,-48.92567 2.76699,-68.68633 3.43183,-88.05089" fill="#E8E4E3" opacity="0.2" stroke="null"/>
   <path id="svg_42" d="m152.67184,23.1202l-6.90001,-1.35699c0,0 1.90546,40.51811 1.23705,91.10292c-0.11187,43.05737 0.04418,89.10274 -0.11187,126.65139c2.21758,0 3.47317,1.06441 3.32139,-5.07074c-1.21853,-44.48855 0,-86.12192 1.49003,-123.19491c2.84965,-48.97055 0.77673,-68.74975 0.96342,-88.13167" fill="#FFFFFF" opacity="0.2" stroke="null"/>
   <path id="svg_43" d="m59.04028,17.26506c4.31474,-10.37065 121.4169,-12.36544 140.89271,0" stroke-miterlimit="10" stroke-width="4" fill="none" stroke="#542010"/>
   <path id="svg_44" d="m153.28965,146.66034c8.82473,3.25665 19.37392,14.91189 19.95254,14.87419c4.32044,3.02928 1.22066,-2.99159 1.22066,-2.99159l-17.71927,-12.37801c0,0.0006 -5.70144,-1.57119 -3.45393,0.4954l0,0.00001z" fill="#DDDDDD" stroke="null"/>
   <g id="svg_45" stroke="null">
    <path id="svg_46" d="m100.20165,205.43194c4.14228,-2.03967 16.81428,-10.33416 21.63639,-7.67941c2.76984,3.86932 6.16106,6.86092 1.79786,-2.58234c-2.50262,-7.98276 -19.83923,5.02288 -25.23283,7.67941c-1.98028,0.97466 4.71948,0.07 6.70547,-0.90884l-4.9069,3.49118l0.00001,0z" fill="#DDDDDD" stroke="null"/>
   </g>
   <g id="svg_47" stroke="null">
    <path id="svg_48" d="m141.1464,189.08828c-1.17648,-0.95671 -2.73777,-5.3017 -2.36652,-6.85852c0.30072,-1.26006 2.21117,-2.12821 3.38623,-2.72953c2.90737,-1.48622 10.38102,-4.43174 13.10454,-6.17405c1.80143,-1.15296 -4.16937,-1.76324 -5.99716,-0.59293c-3.73326,2.38848 -7.32899,3.88369 -11.97794,6.07772c-11.12283,6.1884 -1.53349,6.85494 1.64109,9.43429c-1.14656,4.28874 1.49786,4.28874 3.27934,8.3603l-1.0696,-7.51727l0.00001,-0.00001l0.00001,0z" fill="#DDDDDD" stroke="null"/>
   </g>
   <g id="svg_49" stroke="null">
    <path id="svg_50" d="m140.90838,212.61595c-0.25867,-3.27938 -1.6924,-12.2021 18.52237,-8.22688c2.2468,0.30574 2.00096,-1.56101 -0.26223,-1.86975c-3.38266,-0.46011 -18.69624,-3.69342 -20.57605,-1.12185c-1.68457,2.30472 -1.45155,8.62356 -1.24703,11.21847c0.15107,1.91462 3.71474,1.92718 3.56296,0l0,0l-0.00001,0.00001l-0.00001,0z" fill="#DDDDDD" stroke="null"/>
   </g>
   <g id="svg_51" stroke="null">
    <path id="svg_52" d="m113.21926,183.53768c-3.91426,-0.05863 -14.62307,0.3919 -8.20904,-16.1881c0.55083,-1.85419 -1.68527,-1.80512 -2.24109,0.06223c-0.83017,2.79176 -5.95298,15.3331 -3.05844,17.12147c2.59383,1.6029 10.11237,1.93796 13.20929,1.98463c2.28527,0.0353 2.59882,-2.94492 0.29928,-2.98022l0,0l0,-0.00001z" fill="#DDDDDD" stroke="null"/>
   </g>
   <g id="svg_53" stroke="null">
    <path id="svg_54" d="m106.94275,164.69724c6.03992,1.63042 12.32853,1.27441 18.52736,2.09411c2.2468,0.29676 3.21236,-2.58533 0.94775,-2.8851c-6.17816,-0.81611 -12.52022,-0.47207 -18.52736,-2.09411c-2.19406,-0.59173 -3.12542,2.29694 -0.94775,2.8851l0,0z" fill="#DDDDDD" stroke="null"/>
   </g>
   <g id="svg_55" opacity="0.4" stroke="null">
    <g id="svg_56" stroke="null">
     <path id="svg_57" d="m61.16166,46.79805c-1.04109,13.83192 -0.16247,27.55076 2.56675,41.21515c2.80476,14.04253 7.13731,27.84872 10.58624,41.78355c0.46746,1.8877 3.90143,1.08655 3.4354,-0.79577c-3.30215,-13.3407 -7.33327,-26.55994 -10.21072,-39.97364c-2.99716,-13.97013 -3.88077,-28.06591 -2.81474,-42.2293c0.14537,-1.92718 -3.41829,-1.91522 -3.56296,0l0,0l0.00002,0.00001l0.00001,0z" fill="#DDDDDD" stroke="null"/>
    </g>
   </g>
   <g id="svg_58" opacity="0.4" stroke="null">
    <g id="svg_59" stroke="null">
     <path id="svg_60" d="m189.91539,50.04572c0.87007,11.28369 1.35535,22.63976 -0.6848,33.85643c-2.04514,11.2412 -5.70857,22.28376 -8.46131,33.41009c-0.46533,1.88231 2.96865,2.68345 3.43612,0.79517c2.75416,-11.1341 6.33778,-22.17248 8.46059,-33.41009c2.16771,-11.47634 1.70309,-23.09867 0.81236,-34.6516c-0.14751,-1.91522 -3.71188,-1.92778 -3.56296,0l0,0z" fill="#DDDDDD" stroke="null"/>
    </g>
   </g>
   <g id="svg_61" opacity="0.4" stroke="null">
    <g id="svg_62" stroke="null">
     <path id="svg_63" d="m84.37715,239.9914c15.54303,2.18626 31.19223,4.15114 46.98823,4.1272c16.15871,-0.02453 32.25684,-2.13181 48.21317,-4.05121c2.26675,-0.27283 1.29834,-3.15494 -0.94775,-2.8851c-15.37058,1.8494 -30.81384,3.77419 -46.3697,3.93873c-15.76606,0.16753 -31.43023,-1.83324 -46.93692,-4.01531c-2.24608,-0.31531 -3.2088,2.56738 -0.94703,2.88569l0,0l-0.00001,0.00001l0.00001,-0.00001z" fill="#DDDDDD" stroke="null"/>
    </g>
   </g>
   <g id="svg_64" opacity="0.4" stroke="null">
    <g id="svg_65" stroke="null">
     <path id="svg_66" d="m84.73273,234.8339c15.42687,2.1701 30.95422,4.11164 46.63264,4.08771c16.04041,-0.02453 32.01813,-2.10608 47.85759,-4.01113c0.56722,-0.06821 0.32494,-0.78858 -0.23658,-0.72098c-15.48816,1.86257 -31.05042,3.81249 -46.72529,3.97821c-15.88364,0.16873 -31.67038,-1.85718 -47.29179,-4.05481c-0.56153,-0.07898 -0.80238,0.64139 -0.23658,0.72098l0,0l0,0.00001l0.00001,0.00001z" fill="#DDDDDD" stroke="null"/>
    </g>
   </g>
   <ellipse id="svg_67" ry="5.73189" rx="73.31845" cy="45.55773" cx="129.06228" fill="#542010" stroke="null"/>
  </g>
 </g>

</svg>